<svg xmlns="http://www.w3.org/2000/svg" width="1080" height="1080" style="width:100%;height:100%;transform:translate3d(0,0,0);content-visibility:visible" viewBox="0 0 1080 1080"><defs><path id="d" style="display:none"/><path id="c" style="display:none"/><path id="b" style="display:none"/><mask id="f" mask-type="alpha"><g filter="url(#a)"><path fill="#fff" d="M0 0h1080v1080H0z" opacity="0"/><use xmlns:ns1="http://www.w3.org/1999/xlink" ns1:href="#b"/></g></mask><mask id="g" mask-type="alpha"><use xmlns:ns2="http://www.w3.org/1999/xlink" ns2:href="#c"/></mask><mask id="h" mask-type="alpha"><use xmlns:ns3="http://www.w3.org/1999/xlink" ns3:href="#d"/></mask><clipPath id="e"><path d="M0 0h1080v1080H0z"/></clipPath><filter id="a" width="100%" height="100%" x="0%" y="0%" filterUnits="objectBoundingBox"><feComponentTransfer in="SourceGraphic"><feFuncA tableValues="1.0 0.0" type="table"/></feComponentTransfer></filter></defs><g clip-path="url(#e)"><path fill="#fff" d="M38.32-55.44C17.26-71.24-2.78-70.8-2.78-70.8l-2.05 2.34c24.87 7.61 36.42 18.58 36.42 18.58-15.21-8.34-30.13-12.44-44.03-14.05-10.53-1.17-20.62-.87-29.55.3-.88 0-1.61.14-2.48.29-5.12.44-17.56 2.34-33.21 9.22-5.41 2.48-8.63 4.24-8.63 4.24s12.14-11.56 38.47-19.17l-1.46-1.75s-20.04-.44-41.11 15.36c0 0-21.06 38.18-21.06 85.28 0 0 12.28 21.22 44.61 22.24 0 0 5.42-6.58 9.81-12.14-18.58-5.56-25.6-17.26-25.6-17.26s1.46 1.02 4.09 2.48c.15.15.29.3.59.44.44.29.87.44 1.31.73 3.66 2.05 7.32 3.66 10.68 4.98 6 2.34 13.17 4.68 21.51 6.29 10.97 2.05 23.84 2.78 37.88.14 6.88-1.17 13.9-3.21 21.22-6.29 5.12-1.9 10.82-4.68 16.82-8.63 0 0-7.32 12-26.48 17.41 4.39 5.56 9.66 11.85 9.66 11.85 32.32-1.02 44.76-22.24 44.76-22.24 0-47.1-21.07-85.28-21.07-85.28zM-53.4 16.24c-8.19 0-14.92-7.31-14.92-16.24 0-8.92 6.58-16.24 14.92-16.24S-38.33-8.92-38.48 0c0 8.93-6.58 16.24-14.92 16.24zm53.4 0c-8.2 0-14.92-7.31-14.92-16.24 0-8.92 6.58-16.24 14.92-16.24 8.33 0 14.92 7.32 14.92 16.24 0 8.93-6.59 16.24-14.92 16.24z" class="primary design" style="display:block" transform="translate(655.168 582.724) scale(4.38894)"/><path class="primary design" style="display:none"/><g mask="url(#f)" style="display:none"><path class="primary design"/></g><g mask="url(#g)" style="display:none"><path class="primary design"/></g><g mask="url(#h)" style="display:none"><path class="primary design"/></g></g></svg>