<svg xmlns="http://www.w3.org/2000/svg" width="113" height="110" style="width:100%;height:100%;transform:translate3d(0,0,0);content-visibility:visible" viewBox="0 0 113 110"><defs><clipPath id="c"><path d="M0 0h113v110H0z"/></clipPath><clipPath id="f"><path d="M0 0h113v110H0z"/></clipPath><clipPath id="d"><path d="M0 0h113v110H0z"/></clipPath><mask id="g" mask-type="alpha"><use xmlns:ns1="http://www.w3.org/1999/xlink" ns1:href="#a"/></mask><mask id="e" mask-type="alpha"><use xmlns:ns2="http://www.w3.org/1999/xlink" ns2:href="#b"/></mask><g id="a" class="primary design" style="display:block"><path fill="#fff" d="M56.5 19.88c19.32 0 35 15.68 35 35 0 19.31-15.68 35-35 35s-35-15.69-35-35c0-19.32 15.68-35 35-35z"/><path fill-opacity="0" stroke="#fff" stroke-width="0" d="M56.5 19.875c19.316 0 35 15.684 35 35 0 19.316-15.684 35-35 35-19.316 0-35-15.684-35-35 0-19.316 15.684-35 35-35z"/></g><g id="b" class="primary design" style="display:block"><path fill="#fff" d="M56.5 19.88c19.32 0 35 15.68 35 35 0 19.31-15.68 35-35 35s-35-15.69-35-35c0-19.32 15.68-35 35-35z"/><path fill-opacity="0" stroke="#fff" stroke-width="0" d="M56.5 19.875c19.316 0 35 15.684 35 35 0 19.316-15.684 35-35 35-19.316 0-35-15.684-35-35 0-19.316 15.684-35 35-35z"/></g></defs><g fill="none" clip-path="url(#c)"><path stroke="#fff" stroke-width="6" d="M0-35c19.316 0 35 15.684 35 35 0 19.316-15.684 35-35 35-19.316 0-35-15.684-35-35 0-19.316 15.684-35 35-35z" class="primary design" style="display:block" transform="translate(56.5 54.875)"/><g clip-path="url(#d)" mask="url(#e)" style="display:none"><path class="primary design" style="display:none"/><path class="primary design" style="display:none"/><path class="primary design" style="display:none"/><path class="primary design" style="display:none"/><path class="primary design" style="display:none"/><path class="primary design" style="display:none"/><path class="primary design" style="display:none"/><path class="primary design" style="display:none"/><path class="primary design" style="display:none"/><path class="primary design" style="display:none"/><path class="primary design" style="display:none"/><path class="primary design" style="display:none"/></g><g clip-path="url(#f)" mask="url(#g)" style="display:block"><path class="primary design" style="display:none"/><path class="primary design" style="display:none"/><path class="primary design" style="display:none"/><path class="primary design" style="display:none"/><path class="primary design" style="display:none"/><path class="primary design" style="display:none"/><path class="primary design" style="display:none"/><path class="primary design" style="display:none"/><path class="primary design" style="display:none"/><path stroke="#fff" stroke-width="6" d="M-93.275 4.87c7.417 6.583 24.5 31.5 30 62.5" class="primary design" style="display:block" transform="translate(135.58 18.635)"/><path stroke="#fff" stroke-miterlimit="10" stroke-width="32" d="M-704.693 135.016c50.987-77.55 138.124-117.891 230.295-111.96 75.15 4.835 152.833 51.695 201.411 114.279 34.837 44.882 79.679 81.046 131.51 104.317 6.456 2.899 12.574 5.477 18.102 7.571 68.932 26.109 137.999 46.126 207.826 46.126 207.659 0 294.819-160.333 294.819-160.333 50.987-77.55 138.125-117.891 230.296-111.96 75.15 4.835 152.833 51.695 201.411 114.279m-431.952-2.131c50.987-77.55 138.125-117.891 230.296-111.96 75.15 4.835 152.832 51.695 201.411 114.279 34.837 44.882 79.679 81.046 131.51 104.317 6.456 2.899 12.574 5.477 18.102 7.571 68.932 26.109 137.998 46.126 207.825 46.126 207.66 0 294.82-160.333 294.82-160.333 50.987-77.55 138.125-117.891 230.296-111.96 75.15 4.835 152.833 51.695 201.411 114.279" class="primary design" style="display:block" transform="rotate(-21 326.08 690.625) scale(.18)"/><path stroke="#fff" stroke-miterlimit="10" stroke-width="32" d="M-704.693 135.016c50.987-77.55 138.124-117.891 230.295-111.96 75.15 4.835 152.833 51.695 201.411 114.279 34.837 44.882 79.679 81.046 131.51 104.317 6.456 2.899 12.574 5.477 18.102 7.571 68.932 26.109 137.999 46.126 207.826 46.126 49.572 0 92.277-9.137 128.569-23.048 115.737-44.364 166.25-137.285 166.25-137.285 50.987-77.55 138.125-117.891 230.296-111.96 75.15 4.835 152.833 51.695 201.411 114.279m-431.952-2.131c50.987-77.55 138.125-117.891 230.296-111.96 75.15 4.835 152.832 51.695 201.411 114.279 34.837 44.882 79.679 81.046 131.51 104.317 6.456 2.899 12.574 5.477 18.102 7.571 68.932 26.109 137.998 46.126 207.825 46.126 207.66 0 294.82-160.333 294.82-160.333 50.987-77.55 138.125-117.891 230.296-111.96 75.15 4.835 152.833 51.695 201.411 114.279" class="primary design" style="display:block" transform="rotate(-21 114.769 447.51) scale(.18)"/></g></g></svg>