<svg xmlns="http://www.w3.org/2000/svg" width="113" height="110" style="width:100%;height:100%;transform:translate3d(0,0,0);content-visibility:visible" viewBox="0 0 113 110"><defs><clipPath id="c"><path d="M0 0h113v110H0z"/></clipPath><filter id="a" width="100%" height="100%" x="0%" y="0%" filterUnits="objectBoundingBox"><feComponentTransfer in="SourceGraphic"><feFuncA tableValues="1.0 0.0" type="table"/></feComponentTransfer></filter><path id="b" d="M-.375-34.222c-19.219 0-34.852 15.633-34.852 34.847 0 19.219 15.633 34.852 34.852 34.852 19.215 0 34.852-15.633 34.852-34.852 0-19.214-15.637-34.847-34.852-34.847zm0 57.695" class="primary design" style="display:block" transform="matrix(.56 0 0 .56 56.5 55)"/><mask id="d" mask-type="alpha"><g filter="url(#a)"><path fill="#fff" d="M0 0h113v110H0z" opacity="0"/><use xmlns:ns1="http://www.w3.org/1999/xlink" ns1:href="#b"/></g></mask></defs><g fill="#fff" clip-path="url(#c)"><g mask="url(#d)" style="display:block"><path d="M73.259 17.48H39.32c-11.525 0-20.901 9.376-20.901 20.902v33.937c0 11.525 9.376 20.901 20.901 20.901h33.94c11.525 0 20.901-9.378 20.901-20.901V38.382c0-11.526-9.376-20.902-20.901-20.902zM87.44 72.319c0 7.82-6.361 14.181-14.181 14.181H39.32c-7.82 0-14.181-6.361-14.181-14.181V38.382c0-7.82 6.361-14.182 14.181-14.182h33.94c7.82 0 14.181 6.362 14.181 14.182v33.937zm0 0" class="primary design"/></g><path d="M-.375-34.222c-19.219 0-34.852 15.633-34.852 34.847 0 19.219 15.633 34.852 34.852 34.852 19.215 0 34.852-15.633 34.852-34.852 0-19.214-15.637-34.847-34.852-34.847zm0 57.695c-12.598 0-22.852-10.246-22.852-22.848 0-12.597 10.25-22.851 22.852-22.851S22.477-11.972 22.477.625c0 12.602-10.254 22.848-22.852 22.848zm36.313-67.871a8.827 8.827 0 0 0-6.215 2.574 8.833 8.833 0 0 0-2.586 6.227c0 2.312.945 4.582 2.586 6.222a8.853 8.853 0 0 0 6.215 2.575c2.32 0 4.582-.942 6.222-2.575a8.866 8.866 0 0 0 2.578-6.222 8.843 8.843 0 0 0-2.578-6.227 8.833 8.833 0 0 0-6.222-2.574zm0 0" class="primary design" style="display:block" transform="matrix(.56 0 0 .56 56.5 55)"/><g opacity=".14" style="display:block"><path d="M76.625 35.065zm0 0" class="primary design" opacity="1"/></g><path fill="none" class="primary design" style="display:none"/><path fill="none" class="primary design" style="display:none"/></g></svg>