<svg xmlns="http://www.w3.org/2000/svg" width="500" height="500" style="width:100%;height:100%;transform:translate3d(0,0,0);content-visibility:visible" viewBox="0 0 500 500"><defs><clipPath id="b"><path d="M0 0h500v500H0z"/></clipPath><path id="a" d="M284.39-779.7c-1.483-10.659-3.29-21.27-4.27-31.98v-35.82H-.16V264.9c-.45 129.67-105.74 234.67-235.6 234.67-38.13 0-74.11-9.04-105.99-25.12h-.01a236.25 236.25 0 0 1-61.33-44.59c-3.3-3.32-6.5-6.74-9.59-10.26-1.86-2.11-3.68-4.25-5.46-6.42a235.02 235.02 0 0 1-6.92-8.88 181.3 181.3 0 0 1-3.3-4.55v-.01c-1.09-1.53-2.16-3.07-3.2-4.63v-.01a220.27 220.27 0 0 1-7.51-11.95c-1.2-2.03-2.36-4.07-3.49-6.14-1.14-2.07-2.24-4.15-3.31-6.26-.86-1.69-1.7-3.39-2.51-5.1-.82-1.7-1.62-3.42-2.4-5.15-1.55-3.46-3.03-6.97-4.42-10.52-.7-1.77-1.37-3.55-2.02-5.34v-.01c-1.31-3.59-2.53-7.21-3.66-10.88v-.01a217.2 217.2 0 0 1-3.14-11.11v-.01c-.49-1.87-.94-3.74-1.37-5.63v-.01a230.335 230.335 0 0 1-2.58-12.88c-.42-2.44-.8-4.89-1.14-7.35-.46-3.28-.84-6.59-1.16-9.91-.72-7.48-1.09-15.07-1.09-22.74 0-15.24 1.45-30.14 4.22-44.57.18-.96.37-1.92.57-2.88v-.01a205.09 205.09 0 0 1 1.54-6.97c1.05-4.44 2.23-8.83 3.53-13.18.52-1.73 1.06-3.46 1.62-5.18 1.33-4.13 2.78-8.2 4.34-12.21.52-1.34 1.05-2.68 1.59-4 0-.01.01-.01.01-.01 1.08-2.66 2.21-5.29 3.39-7.89 0-.01.01-.01.01-.01 1.17-2.61 2.4-5.19 3.67-7.74l.01-.01c1.26-2.55 2.58-5.08 3.94-7.58v-.01c2.72-5 5.61-9.9 8.68-14.67 1.02-1.6 2.06-3.18 3.12-4.74 2.64-3.92 5.41-7.75 8.28-11.49 1.72-2.24 3.48-4.46 5.28-6.64.6-.72 1.21-1.45 1.82-2.17 1.21-1.44 2.45-2.86 3.7-4.27 3.13-3.52 6.36-6.95 9.69-10.28 2.67-2.67 5.39-5.27 8.18-7.8a213.279 213.279 0 0 1 8.55-7.4c1.45-1.2 2.92-2.38 4.4-3.54h.01c1.48-1.17 2.97-2.32 4.48-3.45 4.54-3.39 9.21-6.62 13.99-9.68 1.99-1.28 4-2.53 6.03-3.74a233.9 233.9 0 0 1 6.15-3.56h.01c7.45-4.17 15.15-7.94 23.08-11.29.88-.38 1.77-.75 2.66-1.11 1.77-.72 3.55-1.42 5.34-2.1h.01c.67-.26 1.35-.51 2.02-.76 2.03-.76 4.07-1.48 6.13-2.17 23.72-8.02 49.12-12.37 75.55-12.37a227.153 227.153 0 0 1 6.99.1h.01c1.54.05 3.08.11 4.62.18l2.31.12c1.46.09 2.92.19 4.37.3.08.01.15.01.22.02 1.44.11 2.87.23 4.29.37l.28.03c.76.07 1.52.15 2.28.23.75.08 1.51.17 2.27.25.76.09 1.51.18 2.26.28.27.03.54.07.8.1 1.12.15 2.23.3 3.34.46 2.24.33 4.47.68 6.7 1.07.62.11 1.24.22 1.85.33 3.95.72 7.86 1.54 11.74 2.45.72.17 1.45.35 2.17.53 5.07 1.24 10.07 2.65 15 4.21v-221.62h.01v-63.11a520.49 520.49 0 0 0-70.67-4.79C-519.4-249.87-750-19.39-750 264.9c0 178.21 90.6 335.27 228.29 427.68.02.01.03.02.05.04v.01c.01.01.02.01.03.02 1.59 1.07 3.19 2.13 4.8 3.17 0 0 .01.02.02.02a502.341 502.341 0 0 0 10.97 6.98c1.23.76 2.46 1.52 3.7 2.27 1.32.81 2.64 1.61 3.97 2.39a513.436 513.436 0 0 0 60.1 30.64c2.6 1.12 5.21 2.21 7.83 3.28 2.62 1.07 5.25 2.12 7.89 3.16 2.64 1.03 5.29 2.04 7.95 3.03 6.99 2.6 14.04 5.05 21.17 7.34a499.6 499.6 0 0 0 27.03 7.9 480.818 480.818 0 0 0 22.05 5.27 505.82 505.82 0 0 0 28.06 5.24c3.78.6 7.57 1.16 11.37 1.67 3.8.52 7.62.99 11.45 1.42 3.83.43 7.67.82 11.53 1.17a521.08 521.08 0 0 0 46.81 2.1c18.71 0 37.19-1 55.39-2.95 2.61-.27 5.2-.57 7.79-.89a509.1 509.1 0 0 0 19.84-2.82c3.66-.59 7.3-1.22 10.92-1.89 4.54-.83 9.05-1.73 13.54-2.68 2.24-.48 4.48-.97 6.72-1.47 2.23-.5 4.46-1.02 6.68-1.56 1.78-.43 3.56-.86 5.33-1.31 3.54-.89 7.07-1.82 10.58-2.79 3.51-.96 7.01-1.96 10.5-3 3.48-1.04 6.95-2.11 10.4-3.22 3.45-1.1 6.89-2.25 10.3-3.43 3.42-1.17 6.83-2.39 10.21-3.64 2.71-1 5.41-2.02 8.09-3.06 1.35-.52 2.69-1.04 4.03-1.58 8.03-3.19 15.95-6.58 23.78-10.16 2.61-1.19 5.2-2.41 7.79-3.64a513.94 513.94 0 0 0 45.18-24.44c1.77-1.07 3.53-2.16 5.29-3.25a499.647 499.647 0 0 0 15.61-10.14c1.71-1.15 3.42-2.32 5.11-3.5 2.12-1.47 4.23-2.96 6.33-4.46 2.1-1.5 4.19-3.02 6.26-4.55 2.08-1.53 4.14-3.08 6.19-4.64 2.05-1.56 4.09-3.14 6.12-4.73 1.62-1.27 3.24-2.55 4.84-3.85 3.21-2.58 6.39-5.21 9.54-7.87 3.15-2.66 6.26-5.35 9.35-8.09 3.08-2.73 6.13-5.5 9.14-8.31 101.02-93.98 164.2-228.05 164.2-376.87v-568.36c109.47 78.19 243.53 124.2 388.32 124.2l-.846-272.546c-3.72-.79-344.859-52.278-383.204-327.904z" class="primary design" style="display:block" transform="translate(257.914 256.75) scale(.20632)"/><mask id="c" mask-type="alpha"><use xmlns:ns1="http://www.w3.org/1999/xlink" ns1:href="#a"/></mask></defs><g fill="#fff" clip-path="url(#b)"><path class="primary design" style="display:none"/><path class="primary design" style="display:none"/><g mask="url(#c)" style="display:block"><path d="M316.59 95.882c-.307-2.199-.68-4.388-.882-6.598v-7.39h-57.827v229.51c-.093 26.754-21.816 48.417-48.609 48.417a48.401 48.401 0 0 1-21.868-5.182h-.002a48.743 48.743 0 0 1-14.632-11.317 48.496 48.496 0 0 1-3.235-4.095v-.003a37.42 37.42 0 0 1-.66-.955v-.002a45.446 45.446 0 0 1-1.55-2.465c-.248-.42-.487-.84-.72-1.267a42.802 42.802 0 0 1-1.2-2.344 45.359 45.359 0 0 1-1.408-3.233 41.658 41.658 0 0 1-.417-1.102v-.002c-.27-.74-.522-1.488-.755-2.245v-.002a44.813 44.813 0 0 1-.648-2.292v-.002a36.636 36.636 0 0 1-.282-1.162v-.002a45.518 45.518 0 0 1-.533-2.657 47.635 47.635 0 0 1-.475-3.561 48.971 48.971 0 0 1 .764-14.482v-.002c.06-.297.124-.592.19-.887.041-.184.085-.367.128-.55a48.367 48.367 0 0 1 2.286-7.133c0-.002.002-.002.002-.002.223-.55.456-1.092.7-1.628 0-.002.002-.002.002-.002.241-.539.495-1.071.757-1.597l.002-.002c.26-.526.532-1.048.813-1.564v-.002a47.78 47.78 0 0 1 2.434-4.005 49.524 49.524 0 0 1 3.173-4.188 49.768 49.768 0 0 1 5.321-5.385 52.197 52.197 0 0 1 1.802-1.484h.002c.305-.241.613-.478.924-.711a48.81 48.81 0 0 1 5.4-3.504h.002a47.952 47.952 0 0 1 6.412-2.991h.002c.138-.054.279-.106.417-.157a48.572 48.572 0 0 1 18.294-2.98h.002c.318.01.636.023.953.038l.477.024c.301.019.602.04.902.062l.045.004a40.345 40.345 0 0 1 1.413.13l.469.052c.156.019.311.037.466.058l.165.02a52.05 52.05 0 0 1 2.071.316l.382.068a49.394 49.394 0 0 1 2.87.615 48.27 48.27 0 0 1 3.095.869v-45.725h.002v-13.02a107.43 107.43 0 0 0-14.58-.99c-58.695 0-106.272 47.553-106.272 106.208 0 36.768 18.693 69.173 47.1 88.24a.036.036 0 0 1 .011.007v.002c.002.002.004.002.006.005a63.203 63.203 0 0 0 .995.658l.75.487a112.976 112.976 0 0 0 2.276 1.421 105.932 105.932 0 0 0 18.103 8.769 101.83 101.83 0 0 0 4.368 1.514 103.077 103.077 0 0 0 6.705 1.921 99.202 99.202 0 0 0 4.57 1.038 104.36 104.36 0 0 0 6.986 1.184 111.776 111.776 0 0 0 4.741.534 107.508 107.508 0 0 0 21.086-.175 105.038 105.038 0 0 0 7.954-1.155 102.832 102.832 0 0 0 5.558-1.178 94.907 94.907 0 0 0 3.283-.846 99.562 99.562 0 0 0 4.312-1.284 91.53 91.53 0 0 0 2.125-.707 107.05 107.05 0 0 0 4.607-1.708 105.201 105.201 0 0 0 6.514-2.848 106.036 106.036 0 0 0 18.562-11.343 114.484 114.484 0 0 0 2.261-1.77 105.292 105.292 0 0 0 3.898-3.293 98.772 98.772 0 0 0 1.886-1.715c20.842-19.39 33.877-47.051 33.877-77.756V194.142c22.586 16.132 50.245 25.625 80.119 25.625l-.175-56.232c-.768-.163-71.151-10.786-79.063-67.653z" class="primary design"/></g></g></svg>