<svg xmlns="http://www.w3.org/2000/svg" width="500" height="500" style="width:100%;height:100%;transform:translate3d(0,0,0);content-visibility:visible" viewBox="0 0 500 500"><defs><clipPath id="a"><path d="M0 0h500v500H0z"/></clipPath></defs><g fill="#fff" clip-path="url(#a)"><path d="m22.133 0 127.029-127.029c6.111-6.112 6.111-16.021 0-22.133-6.111-6.111-16.022-6.111-22.133 0L0-22.133l-127.029-127.029c-6.111-6.111-16.022-6.111-22.133 0-6.111 6.112-6.111 16.021 0 22.133L-22.133 0l-127.029 127.029c-6.111 6.112-6.111 16.021 0 22.133a15.6 15.6 0 0 0 11.066 4.583c4.005 0 8.011-1.527 11.067-4.583L0 22.133l127.029 127.029a15.602 15.602 0 0 0 11.067 4.583 15.6 15.6 0 0 0 11.066-4.583c6.111-6.112 6.111-16.021 0-22.133L22.133 0z" style="display:block" transform="translate(249.18 255.546)"/></g></svg>