<svg xmlns="http://www.w3.org/2000/svg" width="500" height="500" style="width:100%;height:100%;transform:translate3d(0,0,0);content-visibility:visible" viewBox="0 0 500 500" fill="#fff"><defs><clipPath id="a"><path d="M0 0h500v500H0z"/></clipPath></defs><g clip-path="url(#a)"><path d="M78.116 166.667a15.57 15.57 0 0 1-10.858-4.391L-88.985 11.237a15.626 15.626 0 0 1 0-22.468l156.25-151.045c6.204-5.999 16.096-5.83 22.094.374 5.998 6.205 5.831 16.096-.374 22.094L-55.644.003 88.978 139.808c6.205 5.998 6.372 15.889.374 22.093a15.581 15.581 0 0 1-11.236 4.766z" style="display:block" transform="rotate(180 192.708 125)"/><path d="M78.116 166.667a15.57 15.57 0 0 1-10.858-4.391L-88.985 11.237a15.626 15.626 0 0 1 0-22.468l156.25-151.045c6.204-5.999 16.096-5.83 22.094.374 5.998 6.205 5.831 16.096-.374 22.094L-55.644.003 88.978 139.808c6.205 5.998 6.372 15.889.374 22.093a15.581 15.581 0 0 1-11.236 4.766z" style="display:block" transform="rotate(180 -47.792 125)"/></g></svg>