<svg xmlns="http://www.w3.org/2000/svg" width="178" height="178" style="width:100%;height:100%;transform:translate3d(0,0,0);content-visibility:visible" viewBox="0 0 178 178"><defs><clipPath id="a"><path fill="#fff" d="M0 0h178v178H0z"/></clipPath><clipPath id="b"><path fill="#fff" d="M0 0h178v178H0z"/></clipPath></defs><g clip-path="url(#a)"><g clip-path="url(#b)" style="display:block"><path fill="#fff" d="M29.657 16.246a5.498 5.498 0 0 1-3.929-1.631L.002-11.037l-25.726 25.726c-2.15 2.15-5.708 2.15-7.858 0-2.15-2.15-2.15-5.709 0-7.859l29.655-29.655c2.15-2.15 5.709-2.15 7.859 0L33.587 6.83c2.15 2.15 2.15 5.709 0 7.859a5.743 5.743 0 0 1-3.93 1.557z" class="primary" style="display:block" transform="rotate(90 .003 88.96)"/><path class="primary" style="display:none"/><path class="primary" style="display:none"/><path class="primary" style="display:none"/><path fill="#fff" d="M.077-63.008H-1.48c-16.903.445-32.546 7.34-44.112 19.573-11.64 12.159-17.793 28.173-17.348 45.002.371 16.829 7.339 32.472 19.498 44.112S-15.195 63.472 1.56 63.027c16.829-.371 32.472-7.339 44.112-19.498S63.465 15.356 63.02-1.473c-.371-16.829-7.339-32.472-19.498-44.112C31.66-56.854 16.313-63.008.077-63.008zM-.071 74.148c-19.128 0-37.217-7.191-51.081-20.462-14.309-13.641-22.464-32.102-22.983-51.897-.519-19.795 6.821-38.551 20.462-52.934 13.641-14.309 32.102-22.464 51.897-22.983 19.721-.445 38.625 6.746 52.934 20.462C65.467-40.025 73.622-21.565 74.141-1.77c.445 19.795-6.746 38.626-20.462 52.935C40.038 65.474 21.577 73.629 1.782 74.148H-.071z" class="primary" style="display:block" transform="rotate(90 .003 88.96)"/></g></g></svg>